<?xml version="1.0" encoding="UTF-8" standalone="no"?>
<!DOCTYPE svg PUBLIC "-//W3C//DTD SVG 1.1//EN" "http://www.w3.org/Graphics/SVG/1.1/DTD/svg11.dtd">
<svg
    xmlns="http://www.w3.org/2000/svg" version="1.1"
    xmlns:xlink="http://www.w3.org/1999/xlink"
    width="1024" height="16">
  <g id="kb_octave" opacity="0.5">
   <g fill="#000000" fill-opacity="0.2" stroke="none" stroke-width="0">
     <rect x="8.5" y="0" width="7" height="16" />
     <rect x="24.5" y="0" width="7" height="16" />
     <rect x="48.5" y="0" width="7" height="16" />
     <rect x="64.5" y="0" width="7" height="16" />
     <rect x="80.5" y="0" width="7" height="16" />
   </g>
   <g fill="none" stroke="#000000" stroke-width="1" stroke-opacity="0.5">
     <line x1="0" y1="0" x2="0" y2="16" style="stroke-opacity: 1" />
     <line x1="8" y1="0" x2="8" y2="16" />
     <line x1="16" y1="0" x2="16" y2="16" />
     <line x1="24" y1="0" x2="24" y2="16" />
     <line x1="32" y1="0" x2="32" y2="16" />
     <line x1="40" y1="0" x2="40" y2="16" />
     <line x1="48" y1="0" x2="48" y2="16" />
     <line x1="56" y1="0" x2="56" y2="16" />
     <line x1="64" y1="0" x2="64" y2="16" />
     <line x1="72" y1="0" x2="72" y2="16" />
     <line x1="80" y1="0" x2="80" y2="16" />
     <line x1="88" y1="0" x2="88" y2="16" />
     <line x1="96" y1="0" x2="96" y2="16" style="stroke-opacity: 1" />
   </g>
  </g>
  <use xlink:href="#kb_octave" transform="translate(96, 0)" />
  <use xlink:href="#kb_octave" transform="translate(192, 0)" />
  <use xlink:href="#kb_octave" transform="translate(288, 0)" />
  <use xlink:href="#kb_octave" transform="translate(384, 0)" />
  <use xlink:href="#kb_octave" transform="translate(480, 0)" />
  <use xlink:href="#kb_octave" transform="translate(576, 0)" />
  <use xlink:href="#kb_octave" transform="translate(672, 0)" />
  <use xlink:href="#kb_octave" transform="translate(768, 0)" />
  <use xlink:href="#kb_octave" transform="translate(864, 0)" />
  <use xlink:href="#kb_octave" transform="translate(960, 0)" />
</svg>
