<?xml version="1.0" encoding="UTF-8" standalone="no"?><svg xmlns="http://www.w3.org/2000/svg" version="1.1" width="1024" height="1024"><path d="M 129.52497,130.7539 C -18.180064,278.45554 -18.541887,520.41631 129.1632,668.1214 254.30612,793.26441 447.29242,812.33462 593.10649,725.34927 l 260.58727,253.3886 c 35.86384,34.80913 92.45003,33.52233 126.69249,-2.88085 34.24605,-36.40318 33.34825,-93.68228 -2.51893,-128.49139 L 721.24295,598.65664 c 89.97878,-146.25091 71.70722,-341.48659 -54.70893,-467.90274 -147.70499,-147.705093 -389.3074,-147.705093 -537.00905,0 l 0,0 z m 108.33564,108.33574 c 89.09483,-89.09483 231.23961,-89.09483 320.33433,0 89.09472,89.09472 89.09472,231.23939 0,320.33411 -89.09472,89.09493 -231.2395,89.09493 -320.33433,0 -89.09472,-89.09472 -89.09472,-231.23939 0,-320.33411 z" style="fill:#333333" /></svg>
