<?xml version="1.0" encoding="UTF-8" standalone="no"?><svg xmlns="http://www.w3.org/2000/svg" version="1.1" width="1024" height="1024"><path d="m 470.43936,17.00044 -20.62175,117.46445 0.0794,0.0786 c -25.2069,4.11876 -49.59484,10.72026 -72.8898,19.51128 l 0,-0.0786 -76.53812,-91.449173 -71.93804,41.560633 40.84686,111.99162 0.15841,0.0787 c -19.50293,16.00906 -37.37814,33.94756 -53.37829,53.45806 l -0.0792,-0.23853 -111.99162,-40.847 -41.56062,71.93814 91.44916,76.61751 c -8.77661,23.27563 -15.31918,47.62709 -19.43189,72.81047 l -0.0794,-0.0787 -117.464467,20.62169 0,83.12128 117.464467,20.62168 0.0794,-0.0786 c 4.11241,25.18333 10.65528,49.53463 19.43189,72.81035 l -91.44916,76.6176 41.56062,71.93779 111.99162,-40.84666 0.0792,-0.2386 c 16.00015,19.50987 33.87513,37.44903 53.37829,53.45745 l -0.15841,0.0787 -40.84686,111.99165 71.93804,41.56068 76.53812,-91.44844 0,-0.0792 c 23.29496,8.79117 47.6829,15.39263 72.8898,19.51127 l -0.0794,0.0787 20.62175,117.46436 83.04174,0 20.62175,-117.46436 -0.0792,-0.0787 c 25.20181,-4.10736 49.59692,-10.65398 72.88992,-19.432 l 76.61717,91.44929 71.9381,-41.56062 -40.92606,-111.99159 c 19.4589,-15.96811 37.3254,-33.84486 53.29909,-53.29915 l 112.07079,40.84685 41.48155,-71.93803 -91.36997,-76.61755 c 8.77856,-23.27869 15.39779,-47.62344 19.51132,-72.8104 L 1007,553.5611 1007,470.43986 889.53556,449.8182 c -4.11439,-25.15996 -10.74155,-49.47593 -19.51132,-72.7313 l 91.36999,-76.61762 -41.48154,-71.93796 -112.07079,40.84682 c -15.97415,-19.45463 -33.83956,-37.33099 -53.29913,-53.29917 l 40.92606,-111.99156 -71.9381,-41.56062 -76.61717,91.44908 c -23.293,-8.7773 -47.68811,-15.32421 -72.88992,-19.43181 l 0.0792,-0.0787 -20.62175,-117.464392 -83.04174,0 0,-5.36e-4 z m 41.56063,202.2511 c 161.69947,0 292.82791,131.04919 292.82791,292.74882 0,161.69944 -131.12844,292.74849 -292.82791,292.74849 -161.69939,0 -292.74852,-131.04905 -292.74852,-292.74849 0,-161.69963 131.04913,-292.74882 292.74852,-292.74882 z" style="fill:#333333" /></svg>
