<?xml version="1.0" encoding="UTF-8" standalone="no"?><svg xmlns="http://www.w3.org/2000/svg" version="1.1" width="1024" height="1024"><path d="m 43.52,777.472 v -72.224 q 0,-33.184 23.668,-56.608 23.668,-23.424 56.852,-23.424 33.184,0 56.608,23.424 23.424,23.424 23.424,56.608 v 72.224 q 0,17.568 12.444,29.768 12.444,12.2 30.012,12.2 H 777.96 q 17.08,0 29.524,-12.2 12.444,-12.2 12.444,-29.768 v -72.224 q 0,-33.184 23.424,-56.608 23.424,-23.424 56.608,-23.424 33.184,0 56.852,23.424 23.668,23.424 23.668,56.608 v 72.224 q 0,83.936 -59.292,143.472 Q 861.896,980.48 777.96,980.48 H 246.528 q -83.936,0 -143.472,-59.292 Q 43.52,861.896 43.52,777.472 z M 198.704,370.724 q 0,-33.428 23.424,-56.852 L 469.056,66.944 Q 492.48,43.52 526.152,43.52 q 33.184,0 56.608,23.424 l 242.536,242.048 q 23.424,23.912 23.424,57.096 0,33.184 -23.424,56.608 -23.912,23.424 -57.096,23.424 -33.184,0 -56.608,-23.424 L 606.184,317.288 v 344.528 q 0,33.184 -23.424,56.852 -23.424,23.668 -56.608,23.668 -32.696,0 -56.608,-23.668 Q 445.632,695 445.632,661.816 V 317.288 L 335.344,427.576 Q 311.92,451 278.736,451 q -33.184,0 -56.608,-23.424 -23.424,-23.424 -23.424,-56.852 z" style="fill:#333333" /></svg>
